<svg xmlns="http://www.w3.org/2000/svg" xmlns:xlink="http://www.w3.org/1999/xlink" width="500" zoomAndPan="magnify" viewBox="0 0 375 374.999991" height="500" preserveAspectRatio="xMidYMid meet" version="1.0"><defs><clipPath id="5e6810a9f5"><path d="M 79 17.195312 L 296.429688 17.195312 L 296.429688 357.695312 L 79 357.695312 Z M 79 17.195312 " clip-rule="nonzero"/></clipPath><clipPath id="2ed981c15e"><path d="M 80 196 L 296.429688 196 L 296.429688 357.695312 L 80 357.695312 Z M 80 196 " clip-rule="nonzero"/></clipPath><clipPath id="d0b0a03d6e"><path d="M 114.914062 220 L 260.414062 220 L 260.414062 282 L 114.914062 282 Z M 114.914062 220 " clip-rule="nonzero"/></clipPath><clipPath id="c2770b76c1"><path d="M 119 132 L 256 132 L 256 151.363281 L 119 151.363281 Z M 119 132 " clip-rule="nonzero"/></clipPath><clipPath id="1871397f3c"><path d="M 88.847656 47.113281 L 286.097656 47.113281 L 286.097656 139 L 88.847656 139 Z M 88.847656 47.113281 " clip-rule="nonzero"/></clipPath></defs><g clip-path="url(#5e6810a9f5)"><path fill="#ef312d" d="M 296.359375 249.253906 C 296.359375 309.132812 247.726562 357.667969 187.730469 357.667969 C 127.738281 357.667969 79.101562 309.132812 79.101562 249.253906 C 79.101562 189.378906 187.640625 17.164062 187.730469 17.324219 C 187.949219 17.753906 296.359375 189.378906 296.359375 249.253906 " fill-opacity="1" fill-rule="nonzero"/></g><g clip-path="url(#2ed981c15e)"><path fill="#b12320" d="M 282.730469 196.476562 C 284.300781 203.371094 285.1875 209.621094 285.1875 214.941406 C 285.1875 274.816406 236.550781 323.363281 176.558594 323.363281 C 134.609375 323.363281 98.28125 299.585938 80.183594 264.839844 C 87.777344 317.308594 132.886719 357.667969 187.558594 357.667969 C 247.550781 357.667969 296.191406 309.132812 296.191406 249.253906 C 296.191406 236.078125 290.933594 217.46875 282.730469 196.476562 " fill-opacity="1" fill-rule="nonzero"/></g><g clip-path="url(#d0b0a03d6e)"><path fill="#ffffff" d="M 175.835938 251.265625 C 175.835938 268.046875 162.21875 281.617188 145.375 281.617188 C 128.53125 281.617188 114.914062 268.046875 114.914062 251.265625 C 114.914062 234.484375 128.53125 220.914062 145.375 220.914062 C 162.21875 220.914062 175.835938 234.484375 175.835938 251.265625 Z M 229.953125 220.914062 C 213.109375 220.914062 199.488281 234.484375 199.488281 251.265625 C 199.488281 268.046875 213.109375 281.617188 229.953125 281.617188 C 246.796875 281.617188 260.414062 268.046875 260.414062 251.265625 C 260.414062 234.484375 246.796875 220.914062 229.953125 220.914062 Z M 229.953125 220.914062 " fill-opacity="1" fill-rule="nonzero"/></g><path fill="#000000" d="M 201.28125 286.082031 C 191.785156 288.9375 181.390625 288.757812 172.074219 285.542969 C 170.28125 285.007812 169.027344 283.046875 169.566406 281.082031 C 170.101562 279.296875 172.074219 278.046875 174.046875 278.582031 C 182.289062 281.4375 191.066406 281.617188 199.488281 279.117188 C 203.96875 277.867188 205.761719 284.652344 201.28125 286.082031 Z M 174.582031 246.445312 C 174.582031 235.195312 165.625 226.269531 154.335938 226.269531 C 143.226562 226.269531 134.085938 235.375 134.085938 246.445312 C 134.085938 257.515625 143.226562 266.621094 154.335938 266.621094 C 165.625 266.621094 174.582031 257.515625 174.582031 246.445312 Z M 239.269531 226.269531 C 228.160156 226.269531 219.019531 235.375 219.019531 246.445312 C 219.019531 257.515625 228.160156 266.621094 239.269531 266.621094 C 250.378906 266.621094 259.515625 257.515625 259.515625 246.445312 C 259.515625 235.375 250.378906 226.269531 239.269531 226.269531 Z M 157.738281 196.097656 C 159.710938 196.277344 161.324219 194.3125 161.324219 192.527344 C 161.324219 190.5625 159.710938 189.132812 157.738281 188.957031 C 147.347656 188.0625 136.953125 190.382812 127.636719 195.203125 C 123.515625 197.347656 127.097656 203.597656 131.21875 201.453125 C 139.460938 197.167969 148.601562 195.382812 157.738281 196.097656 Z M 245.183594 201.453125 C 249.304688 203.597656 252.886719 197.527344 248.765625 195.203125 C 239.628906 190.382812 229.054688 188.0625 218.839844 188.957031 C 216.871094 189.132812 215.257812 190.5625 215.257812 192.527344 C 215.257812 194.3125 216.871094 196.277344 218.839844 196.097656 C 227.980469 195.382812 237.117188 197.167969 245.183594 201.453125 Z M 245.183594 201.453125 " fill-opacity="1" fill-rule="nonzero"/><g clip-path="url(#c2770b76c1)"><path fill="#d6a968" d="M 187.511719 132.285156 C 187.503906 132.285156 187.5 132.285156 187.496094 132.285156 C 187.492188 132.285156 187.488281 132.285156 187.484375 132.285156 C 187.460938 132.285156 187.441406 132.285156 187.417969 132.285156 C 151.820312 132.285156 127.335938 137.355469 119.285156 141.898438 C 127.347656 146.417969 151.804688 151.46875 187.371094 151.511719 L 187.621094 151.511719 C 223.1875 151.46875 247.644531 146.417969 255.707031 141.898438 C 247.65625 137.355469 223.171875 132.285156 187.574219 132.285156 C 187.550781 132.285156 187.53125 132.285156 187.511719 132.285156 " fill-opacity="1" fill-rule="nonzero"/></g><g clip-path="url(#1871397f3c)"><path fill="#d6a968" d="M 276.335938 86.933594 C 274.550781 88.433594 274.8125 89.652344 274.316406 91.007812 C 274.042969 91.753906 273.738281 92.726562 272.398438 93.902344 C 272.398438 93.902344 255.160156 111.769531 243.617188 107.945312 C 226.511719 102.277344 235.898438 80.246094 235.898438 80.246094 L 237.664062 76.382812 C 238.542969 74.457031 241.164062 73.664062 242.222656 73.015625 C 244.15625 71.839844 244.792969 72.242188 245.9375 69.734375 C 247.792969 65.671875 246.058594 58.5 245.496094 56.996094 C 243.855469 57.855469 237.058594 61.613281 235.203125 65.679688 C 234.058594 68.1875 235.484375 69.648438 236.015625 71.542969 C 236.304688 72.585938 236.757812 73.9375 235.882812 75.863281 L 234.121094 79.726562 C 234.121094 79.726562 223.589844 100.890625 207.878906 101.03125 C 188.6875 101.203125 188.617188 69.945312 188.617188 69.945312 C 188.617188 67.648438 189.804688 66.367188 190.65625 65.359375 C 192.203125 63.527344 194.53125 62.429688 194.53125 59.433594 C 194.53125 54.707031 189.179688 48.851562 187.621094 47.246094 L 187.621094 47.214844 C 187.589844 47.183594 187.550781 47.140625 187.523438 47.113281 C 187.519531 47.117188 187.515625 47.125 187.511719 47.128906 C 187.503906 47.125 187.5 47.117188 187.496094 47.113281 C 187.492188 47.117188 187.488281 47.125 187.484375 47.128906 C 187.476562 47.125 187.472656 47.117188 187.46875 47.113281 C 187.441406 47.140625 187.402344 47.183594 187.371094 47.214844 L 187.371094 47.246094 C 185.8125 48.851562 180.460938 54.707031 180.460938 59.433594 C 180.460938 62.429688 182.789062 63.527344 184.335938 65.359375 C 185.1875 66.367188 186.375 67.648438 186.375 69.945312 C 186.375 69.945312 186.304688 101.203125 167.113281 101.03125 C 151.402344 100.890625 140.875 79.726562 140.875 79.726562 L 139.113281 75.863281 C 138.234375 73.9375 138.6875 72.585938 138.976562 71.542969 C 139.507812 69.648438 140.933594 68.1875 139.789062 65.679688 C 137.9375 61.613281 131.136719 57.855469 129.496094 56.996094 C 128.933594 58.5 127.199219 65.671875 129.054688 69.734375 C 130.199219 72.242188 130.835938 71.839844 132.769531 73.015625 C 133.832031 73.664062 136.453125 74.457031 137.328125 76.382812 L 139.09375 80.246094 C 139.09375 80.246094 148.480469 102.277344 131.375 107.945312 C 119.832031 111.769531 102.59375 93.902344 102.59375 93.902344 C 101.257812 92.726562 100.949219 91.753906 100.675781 91.007812 C 100.179688 89.652344 100.441406 88.433594 98.65625 86.933594 C 95.578125 84.34375 90.042969 82.804688 88.894531 82.53125 C 89.203125 83.628906 91.582031 88.910156 94.402344 91.390625 C 96.148438 92.921875 97.785156 92.40625 99.25 93.308594 C 115.621094 103.382812 116.921875 138.511719 116.921875 138.511719 L 117.0625 138.511719 C 119.339844 133.144531 149.945312 127.703125 187.390625 127.703125 C 187.40625 127.703125 187.585938 127.703125 187.601562 127.703125 C 225.046875 127.703125 255.652344 133.144531 257.925781 138.511719 L 258.070312 138.511719 C 258.070312 138.511719 259.371094 103.382812 275.742188 93.308594 C 277.207031 92.40625 278.847656 92.921875 280.589844 91.390625 C 283.410156 88.910156 285.789062 83.628906 286.101562 82.53125 C 284.949219 82.804688 279.414062 84.34375 276.335938 86.933594 " fill-opacity="1" fill-rule="nonzero"/></g></svg>